<svg xmlns="http://www.w3.org/2000/svg" viewBox="0 0 840 280" width="840">
  <defs>
    <linearGradient id="titleGrad" x1="0%" y1="0%" x2="100%" y2="0%">
      <stop offset="0%" stop-color="#FFB8D5"/>
      <stop offset="30%" stop-color="#FF3D8A"/>
      <stop offset="55%" stop-color="#FF8A3D"/>
      <stop offset="95%" stop-color="#7FE0EB"/>
    </linearGradient>
    <linearGradient id="accentGrad" x1="0%" y1="0%" x2="100%" y2="0%">
      <stop offset="0%" stop-color="#FF3D8A"/>
      <stop offset="50%" stop-color="#FF8A3D"/>
      <stop offset="100%" stop-color="#7FE0EB"/>
    </linearGradient>
    <clipPath id="cardClip">
      <rect x="0" y="0" width="840" height="280" rx="14" ry="14"/>
    </clipPath>
  </defs>

  <!-- Background -->
  <rect x="0" y="0" width="840" height="280" rx="14" ry="14" fill="#1A0A28"/>

  <!-- Border -->
  <rect x="0.5" y="0.5" width="839" height="279" rx="14" ry="14"
        fill="none" stroke="#FFC6A0" stroke-opacity="0.14" stroke-width="1"/>

  <!-- Top accent stripe (3px, clipped to card radius) -->
  <rect x="0" y="0" width="840" height="3" fill="url(#accentGrad)"
        clip-path="url(#cardClip)"/>

  <!-- Section number -->
  <text x="800" y="40" fill="#FF3D8A"
        font-family="'JetBrains Mono','SF Mono','Cascadia Code',monospace"
        font-size="11" font-weight="500" letter-spacing="2" text-anchor="end">01</text>

  <!-- Eyebrow -->
  <text x="40" y="44" fill="#7FE0EB"
        font-family="'JetBrains Mono','SF Mono','Cascadia Code',monospace"
        font-size="11" font-weight="500" letter-spacing="2">SENIOR SOFTWARE ENGINEER</text>

  <!-- Name -->
  <text x="40" y="96" fill="url(#titleGrad)"
        font-family="'Inter',-apple-system,BlinkMacSystemFont,'Segoe UI',sans-serif"
        font-size="40" font-weight="800" letter-spacing="-1">Alex P&#233;rez</text>

  <!-- Tagline -->
  <text x="40" y="132"
        font-family="'Inter',-apple-system,BlinkMacSystemFont,'Segoe UI',sans-serif"
        font-size="14" fill="#FFC6A0" opacity="0.88">
    <tspan>Building subscriptions at </tspan>
    <tspan fill="#FFB8D5" font-weight="600">Awtomic</tspan>
    <tspan> (YC S20) &#183; Previously </tspan>
    <tspan fill="#FFB8D5" font-weight="600">Eventbrite</tspan>
  </text>

  <!-- Tech stack pills -->
  <!-- TypeScript -->
  <rect x="40" y="170" width="90" height="26" rx="13" fill="#7FE0EB" fill-opacity="0.08"
        stroke="#7FE0EB" stroke-opacity="0.22" stroke-width="1"/>
  <text x="85" y="187" text-anchor="middle" fill="#7FE0EB"
        font-family="'JetBrains Mono','SF Mono','Cascadia Code',monospace"
        font-size="11">TypeScript</text>

  <!-- React -->
  <rect x="140" y="170" width="60" height="26" rx="13" fill="#7FE0EB" fill-opacity="0.08"
        stroke="#7FE0EB" stroke-opacity="0.22" stroke-width="1"/>
  <text x="170" y="187" text-anchor="middle" fill="#7FE0EB"
        font-family="'JetBrains Mono','SF Mono','Cascadia Code',monospace"
        font-size="11">React</text>

  <!-- Rust -->
  <rect x="210" y="170" width="50" height="26" rx="13" fill="#7FE0EB" fill-opacity="0.08"
        stroke="#7FE0EB" stroke-opacity="0.22" stroke-width="1"/>
  <text x="235" y="187" text-anchor="middle" fill="#7FE0EB"
        font-family="'JetBrains Mono','SF Mono','Cascadia Code',monospace"
        font-size="11">Rust</text>

  <!-- Next.js -->
  <rect x="270" y="170" width="65" height="26" rx="13" fill="#7FE0EB" fill-opacity="0.08"
        stroke="#7FE0EB" stroke-opacity="0.22" stroke-width="1"/>
  <text x="302" y="187" text-anchor="middle" fill="#7FE0EB"
        font-family="'JetBrains Mono','SF Mono','Cascadia Code',monospace"
        font-size="11">Next.js</text>

  <!-- Node.js -->
  <rect x="345" y="170" width="65" height="26" rx="13" fill="#7FE0EB" fill-opacity="0.08"
        stroke="#7FE0EB" stroke-opacity="0.22" stroke-width="1"/>
  <text x="377" y="187" text-anchor="middle" fill="#7FE0EB"
        font-family="'JetBrains Mono','SF Mono','Cascadia Code',monospace"
        font-size="11">Node.js</text>

  <!-- GraphQL -->
  <rect x="420" y="170" width="72" height="26" rx="13" fill="#7FE0EB" fill-opacity="0.08"
        stroke="#7FE0EB" stroke-opacity="0.22" stroke-width="1"/>
  <text x="456" y="187" text-anchor="middle" fill="#7FE0EB"
        font-family="'JetBrains Mono','SF Mono','Cascadia Code',monospace"
        font-size="11">GraphQL</text>

  <!-- Social icons (bottom-right) -->
  <!-- Email envelope -->
  <g transform="translate(720, 232)" fill="none" stroke="#FFC6A0"
     stroke-opacity="0.6" stroke-width="1.5" stroke-linecap="round" stroke-linejoin="round">
    <rect x="0" y="0" width="18" height="14" rx="2"/>
    <path d="M0 0L9 7L18 0"/>
  </g>

  <!-- LinkedIn -->
  <g transform="translate(750, 232)" fill="#FFC6A0" fill-opacity="0.6">
    <path d="M4 2a1.5 1.5 0 11-3 0 1.5 1.5 0 013 0zM1 5h3v9h-3zM7 5h2.5v1.2c.5-.8 1.5-1.4 2.7-1.4 2.8 0 3.3 1.8 3.3 4.2V14h-3v-4.3c0-1 0-2.3-1.4-2.3s-1.7 1.1-1.7 2.2V14H7z"/>
  </g>

  <!-- X/Twitter -->
  <g transform="translate(782, 232)" fill="#FFC6A0" fill-opacity="0.6">
    <path d="M1 1l6.5 8L1 16h1.5l5.5-6 4.5 6H16L9.5 7.5 15.5 1H14L9 6.5 5 1zm2 1.2h2.2l9.2 12.6h-2.2z"/>
  </g>
</svg>
